<?xml version="1.0" encoding="UTF-8"?>
<!-- STR brand mark (logomark only — no wordmark). Extracted from str-hero.svg's first <g>.
     Use as <link rel="icon"> and as the source for generated .ico / apple-touch / Android icons.
     Fill set to the STR primary green so the mark reads on a light background. -->
<svg xmlns="http://www.w3.org/2000/svg" viewBox="0 0 287 265.77" role="img" aria-label="STR Mechanical">
  <g fill="#1A4120">
    <path d="M287.85,104.05c-3.91-2.26-8.55-4.31-14.07-4.31-21.66,0-57.15,33.24-115.09,107.77-25.43,31.06-46.07,47.02-62.08,55.5h131.18l75.93-131.51-15.85-27.46h-.02Z"/>
    <path d="M143.16,195.12c43.25-55.65,73.03-87.43,96.5-102.98,12.39-8.21,23.52-12.2,34.06-12.2h.23l-9.54-16.52-.13-.08c-4.22-2.61-9.39-5.28-15.69-5.28-21.66,0-57.15,33.24-115.09,107.77-34.7,42.39-60.5,56.66-77.77,62.18l13.94,24.15c14.15-3.32,37.88-13.57,73.49-57.06v.02Z"/>
    <path d="M109.57,123.87c-34.88,42.61-60.76,56.8-78.03,62.26l13.94,24.15c14.26-3.57,37.71-14.34,72.49-56.82,43.25-55.65,73.03-87.43,96.5-102.98,12.38-8.21,23.52-12.2,34.06-12.2.46,0,.93.04,1.39.05l-9.91-17.17c-4.16-2.54-9.21-5.06-15.34-5.06-21.66,0-57.15,33.24-115.09,107.77h-.01Z"/>
    <path d="M94.05,111.49C137.3,55.84,167.08,24.06,190.54,8.51c5.58-3.7,10.91-6.5,16.04-8.51H75.93L0,131.51l21.29,36.87c14.23-3.5,37.76-14.14,72.76-56.89Z"/>
  </g>
</svg>
